<svg width="40" height="40" viewBox="0 0 40 40" fill="none" xmlns="http://www.w3.org/2000/svg">
<g clip-path="url(#clip0_8631_1691)">
<path d="M12.1951 16.7559L19.94 9.01417L27.688 16.7622L32.1919 12.2551L19.94 0L7.68799 12.252L12.1951 16.7559Z" fill="#DCA536"/>
<path d="M-0.00146484 19.9395L4.50397 15.434L9.00941 19.9395L4.50397 24.4449L-0.00146484 19.9395Z" fill="#DCA536"/>
<path d="M12.1955 23.1213L19.9404 30.8662L27.6884 23.1182L32.1955 27.619L32.1924 27.6221L19.9404 39.8772L7.68843 27.6284L7.68213 27.6221L12.1955 23.1213Z" fill="#DCA536"/>
<path d="M30.8633 19.9404L35.3687 15.435L39.8742 19.9404L35.3687 24.4459L30.8633 19.9404Z" fill="#DCA536"/>
<path d="M24.5102 19.937L19.9401 15.3638L16.5606 18.7433L16.1701 19.1307L15.3701 19.9307L15.3638 19.937L15.3701 19.9464L19.9401 24.5134L24.5102 19.9401L24.5134 19.937H24.5102Z" fill="#DCA536"/>
</g>
<defs>
<clipPath id="clip0_8631_1691">
<rect width="40" height="40" fill="white"/>
</clipPath>
</defs>
</svg>
