<svg width="41" height="41" viewBox="0 0 41 41" fill="none" xmlns="http://www.w3.org/2000/svg">
<g clip-path="url(#clip0_9827_2537)">
<path d="M0 20.3927C0 9.34647 8.95474 0.391724 20.001 0.391724C31.0472 0.391724 40.002 9.34647 40.002 20.3927C40.002 31.4389 31.0472 40.3937 20.001 40.3937C8.95474 40.3937 0 31.4389 0 20.3927Z" fill="#45B36B"/>
<g clip-path="url(#clip1_9827_2537)">
<path d="M20 40.3917C31.0457 40.3917 40 31.4374 40 20.3917C40 9.34603 31.0457 0.391724 20 0.391724C8.9543 0.391724 0 9.34603 0 20.3917C0 31.4374 8.9543 40.3917 20 40.3917Z" fill="#607BEE"/>
<path d="M20.1235 4.39172V16.2185L30.1197 20.6853L20.1235 4.39172Z" fill="#C0CCF9"/>
<path d="M20.1225 4.39172L10.125 20.6853L20.1225 16.2185V4.39172Z" fill="white"/>
<path d="M20.1235 28.3491V36.3852L30.1263 22.5464L20.1235 28.3491Z" fill="#C0CCF9"/>
<path d="M20.123 36.3852V28.3478L10.1255 22.5464L20.123 36.3852Z" fill="white"/>
<path d="M20.1235 26.4891L30.1197 20.685L20.1235 16.2209V26.4891Z" fill="#8196F1"/>
<path d="M10.1255 20.685L20.123 26.4891V16.2209L10.1255 20.685Z" fill="#C0CCF9"/>
</g>
</g>
<defs>
<clipPath id="clip0_9827_2537">
<path d="M0 20.3927C0 9.34647 8.95474 0.391724 20.001 0.391724C31.0472 0.391724 40.002 9.34647 40.002 20.3927C40.002 31.4389 31.0472 40.3937 20.001 40.3937C8.95474 40.3937 0 31.4389 0 20.3927Z" fill="white"/>
</clipPath>
<clipPath id="clip1_9827_2537">
<rect width="40" height="40" fill="white" transform="translate(0 0.391724)"/>
</clipPath>
</defs>
</svg>
