<svg width="32" height="32" viewBox="0 0 32 32" fill="none" xmlns="http://www.w3.org/2000/svg">
<path d="M16 32C24.8366 32 32 24.8366 32 16C32 7.16344 24.8366 0 16 0C7.16344 0 0 7.16344 0 16C0 24.8366 7.16344 32 16 32Z" fill="#ECEFF0"/>
<path d="M16.0986 5.6001V13.2872L22.5958 16.1904L16.0986 5.6001Z" fill="#2F3030"/>
<path d="M16.0982 5.6001L9.6001 16.1904L16.0982 13.2872V5.6001Z" fill="#828384"/>
<path d="M16.0986 21.172V26.3952L22.6002 17.4004L16.0986 21.172Z" fill="#2F3030"/>
<path d="M16.0986 26.3952V21.1711L9.60059 17.4004L16.0986 26.3952Z" fill="#828384"/>
<path d="M16.0986 19.9631L22.5958 16.1906L16.0986 13.2891V19.9631Z" fill="#131313"/>
<path d="M9.60059 16.1906L16.0986 19.9631V13.2891L9.60059 16.1906Z" fill="#343535"/>
</svg>
